<?xml version="1.0" encoding="UTF-8"?>
<svg width="792px" height="250px" viewBox="0 0 792 250" version="1.1" xmlns="http://www.w3.org/2000/svg" xmlns:xlink="http://www.w3.org/1999/xlink">
    <!-- Generator: Sketch 63 (92445) - https://sketch.com -->
    <title>windowing</title>
    <desc>Created with Sketch.</desc>
    <g id="windowing" stroke="none" stroke-width="1" fill="none" fill-rule="evenodd">
        <rect fill="#FFFFFF" x="0" y="0" width="792" height="250"></rect>
        <path d="M34.8,56 C37.136,56 38.768,54.992 38.768,52.928 C38.768,51.488 37.888,50.656 36.64,50.416 L36.64,50.352 C37.616,50.032 38.176,49.104 38.176,48.064 C38.176,46.224 36.688,45.504 34.56,45.504 L31.44,45.504 L31.44,56 L34.8,56 Z M34.336,49.968 L32.784,49.968 L32.784,46.576 L34.384,46.576 C36.016,46.576 36.848,47.024 36.848,48.24 C36.848,49.312 36.112,49.968 34.336,49.968 Z M34.608,54.928 L32.784,54.928 L32.784,50.992 L34.608,50.992 C36.432,50.992 37.44,51.584 37.44,52.88 C37.44,54.288 36.4,54.928 34.608,54.928 Z M42.048,59.28 L42.048,56.656 L42.016,55.296 C42.72,55.856 43.456,56.192 44.16,56.192 C45.936,56.192 47.536,54.64 47.536,52 C47.536,49.584 46.448,48.032 44.448,48.032 C43.552,48.032 42.672,48.528 41.968,49.12 L41.92,49.12 L41.808,48.224 L40.72,48.224 L40.72,59.28 L42.048,59.28 Z M43.936,55.072 C43.424,55.072 42.752,54.864 42.048,54.272 L42.048,50.208 C42.8,49.504 43.456,49.152 44.112,49.152 C45.568,49.152 46.16,50.288 46.16,52 C46.16,53.92 45.216,55.072 43.936,55.072 Z M52.736,56.192 C53.808,56.192 54.64,55.872 55.312,55.392 L54.848,54.544 C54.304,54.912 53.648,55.12 52.896,55.12 C51.424,55.12 50.448,54.064 50.336,52.464 L55.568,52.464 C55.616,52.208 55.632,51.968 55.632,51.68 C55.632,49.44 54.496,48.032 52.512,48.032 C50.736,48.032 49.024,49.584 49.024,52.112 C49.024,54.688 50.656,56.192 52.736,56.192 Z M54.448,51.44 L50.336,51.44 C50.496,49.952 51.456,49.088 52.544,49.088 C53.728,49.088 54.448,49.904 54.448,51.44 Z M58.72,56 L58.72,52.48 C58.72,51.792 58.656,50.608 58.576,49.792 L58.64,49.792 C58.864,50.432 59.12,51.104 59.344,51.712 L60.8,55.264 L61.792,55.264 L63.232,51.712 C63.456,51.104 63.696,50.432 63.92,49.792 L63.984,49.792 C63.92,50.608 63.84,51.792 63.84,52.48 L63.84,56 L65.04,56 L65.04,48.224 L63.456,48.224 L62,51.856 C61.792,52.432 61.568,53.072 61.344,53.776 L61.28,53.776 C61.088,53.072 60.848,52.432 60.624,51.856 L59.104,48.224 L57.536,48.224 L57.536,56 L58.72,56 Z M70.8,56.192 C71.872,56.192 72.704,55.872 73.376,55.392 L72.912,54.544 C72.368,54.912 71.712,55.12 70.96,55.12 C69.488,55.12 68.512,54.064 68.4,52.464 L73.632,52.464 C73.68,52.208 73.696,51.968 73.696,51.68 C73.696,49.44 72.56,48.032 70.576,48.032 C68.8,48.032 67.088,49.584 67.088,52.112 C67.088,54.688 68.72,56.192 70.8,56.192 Z M72.512,51.44 L68.4,51.44 C68.56,49.952 69.52,49.088 70.608,49.088 C71.792,49.088 72.512,49.904 72.512,51.44 Z M76.928,56 L76.928,52.544 L80.656,52.544 L80.656,56 L81.984,56 L81.984,48.224 L80.656,48.224 L80.656,51.376 L76.928,51.376 L76.928,48.224 L75.6,48.224 L75.6,56 L76.928,56 Z M85.92,56 L85.92,52.544 L89.648,52.544 L89.648,56 L90.976,56 L90.976,48.224 L89.648,48.224 L89.648,51.376 L85.92,51.376 L85.92,48.224 L84.592,48.224 L84.592,56 L85.92,56 Z M96.608,56.192 C98.512,56.192 100.224,54.704 100.224,52.128 C100.224,49.52 98.512,48.032 96.608,48.032 C94.704,48.032 93.008,49.52 93.008,52.128 C93.008,54.704 94.704,56.192 96.608,56.192 Z M96.608,55.088 C95.28,55.088 94.384,53.904 94.384,52.128 C94.384,50.336 95.28,49.136 96.608,49.136 C97.952,49.136 98.848,50.336 98.848,52.128 C98.848,53.904 97.952,55.088 96.608,55.088 Z M105.504,46.832 C107.296,46.832 107.952,45.632 108.016,44.384 L106.928,44.384 C106.896,45.296 106.56,46.048 105.504,46.048 C104.448,46.048 104.112,45.296 104.08,44.384 L102.992,44.384 C103.056,45.632 103.712,46.832 105.504,46.832 Z M103.68,56 L106.448,51.616 C106.752,51.136 107.152,50.432 107.456,49.84 L107.52,49.84 C107.44,50.96 107.392,51.92 107.392,52.752 L107.392,56 L108.656,56 L108.656,48.224 L107.248,48.224 L104.464,52.624 C104.16,53.104 103.76,53.824 103.456,54.384 L103.392,54.384 C103.472,53.28 103.536,52.304 103.536,51.472 L103.536,48.224 L102.256,48.224 L102.256,56 L103.68,56 Z M115.824,59.28 L115.824,56.656 L115.792,55.296 C116.496,55.856 117.232,56.192 117.936,56.192 C119.712,56.192 121.312,54.64 121.312,52 C121.312,49.584 120.224,48.032 118.224,48.032 C117.328,48.032 116.448,48.528 115.744,49.12 L115.696,49.12 L115.584,48.224 L114.496,48.224 L114.496,59.28 L115.824,59.28 Z M117.712,55.072 C117.2,55.072 116.528,54.864 115.824,54.272 L115.824,50.208 C116.576,49.504 117.232,49.152 117.888,49.152 C119.344,49.152 119.936,50.288 119.936,52 C119.936,53.92 118.992,55.072 117.712,55.072 Z M123.984,56 L126.128,52.944 L127.6,52.944 L127.6,56 L128.896,56 L128.896,48.224 L126.16,48.224 C124.416,48.224 123.104,48.816 123.104,50.512 C123.104,51.76 123.872,52.464 124.88,52.768 L122.512,56 L123.984,56 Z M127.6,51.936 L126.384,51.936 C125.152,51.936 124.416,51.456 124.416,50.528 C124.416,49.648 125.152,49.264 126.384,49.264 L127.6,49.264 L127.6,51.936 Z M131.808,58.752 L131.808,56 L137.12,56 L137.12,58.752 L138.256,58.752 L138.4,55.76 L138.4,54.912 L137.264,54.912 L137.264,48.224 L132.416,48.224 L132,51.664 C131.696,54.16 131.344,54.688 130.912,54.912 L130.528,54.912 L130.528,55.76 L130.672,58.752 L131.808,58.752 Z M135.936,54.912 L132.336,54.912 C132.688,54.352 132.992,53.44 133.168,51.92 L133.472,49.296 L135.936,49.296 L135.936,54.912 Z" id="Временнойряд" fill="#333333" fill-rule="nonzero"></path>
        <path d="M37.024,120 L37.024,118.896 L34.928,118.896 L34.928,109.792 L33.904,109.792 C33.344,110.128 32.672,110.384 31.728,110.544 L31.728,111.408 L33.6,111.408 L33.6,118.896 L31.264,118.896 L31.264,120 L37.024,120 Z M45.488,120.192 C47.392,120.192 49.104,118.704 49.104,116.128 C49.104,113.52 47.392,112.032 45.488,112.032 C43.584,112.032 41.888,113.52 41.888,116.128 C41.888,118.704 43.584,120.192 45.488,120.192 Z M45.488,119.088 C44.16,119.088 43.264,117.904 43.264,116.128 C43.264,114.336 44.16,113.136 45.488,113.136 C46.832,113.136 47.728,114.336 47.728,116.128 C47.728,117.904 46.832,119.088 45.488,119.088 Z M52.448,120 L52.448,116.496 L54.128,116.496 L56.16,120 L57.6,120 L55.104,115.904 L55.76,114.384 C56.16,113.488 56.48,113.36 56.88,113.36 C56.992,113.36 57.04,113.376 57.136,113.408 L57.376,112.16 C57.248,112.096 57.088,112.064 56.912,112.064 C56.064,112.064 55.472,112.32 54.848,113.696 L54.08,115.424 L52.448,115.424 L52.448,112.224 L51.136,112.224 L51.136,120 L52.448,120 Z M60.384,120 L60.384,116.544 L64.112,116.544 L64.112,120 L65.44,120 L65.44,112.224 L64.112,112.224 L64.112,115.376 L60.384,115.376 L60.384,112.224 L59.056,112.224 L59.056,120 L60.384,120 Z M71.072,120.192 C72.976,120.192 74.688,118.704 74.688,116.128 C74.688,113.52 72.976,112.032 71.072,112.032 C69.168,112.032 67.472,113.52 67.472,116.128 C67.472,118.704 69.168,120.192 71.072,120.192 Z M71.072,119.088 C69.744,119.088 68.848,117.904 68.848,116.128 C68.848,114.336 69.744,113.136 71.072,113.136 C72.416,113.136 73.312,114.336 73.312,116.128 C73.312,117.904 72.416,119.088 71.072,119.088 Z" id="1окно" fill="#333333" fill-rule="nonzero"></path>
        <path d="M37.232,150 L37.232,148.864 L34.176,148.864 C33.648,148.864 33.024,148.896 32.464,148.944 C34.944,146.416 36.736,144.576 36.736,142.592 C36.736,140.8 35.552,139.6 33.664,139.6 C32.352,139.6 31.44,140.224 30.592,141.184 L31.344,141.904 C31.92,141.232 32.656,140.688 33.504,140.688 C34.8,140.688 35.44,141.504 35.44,142.672 C35.44,144.32 33.68,146.208 30.64,149.184 L30.64,150 L37.232,150 Z M45.488,150.192 C47.392,150.192 49.104,148.704 49.104,146.128 C49.104,143.52 47.392,142.032 45.488,142.032 C43.584,142.032 41.888,143.52 41.888,146.128 C41.888,148.704 43.584,150.192 45.488,150.192 Z M45.488,149.088 C44.16,149.088 43.264,147.904 43.264,146.128 C43.264,144.336 44.16,143.136 45.488,143.136 C46.832,143.136 47.728,144.336 47.728,146.128 C47.728,147.904 46.832,149.088 45.488,149.088 Z M52.448,150 L52.448,146.496 L54.128,146.496 L56.16,150 L57.6,150 L55.104,145.904 L55.76,144.384 C56.16,143.488 56.48,143.36 56.88,143.36 C56.992,143.36 57.04,143.376 57.136,143.408 L57.376,142.16 C57.248,142.096 57.088,142.064 56.912,142.064 C56.064,142.064 55.472,142.32 54.848,143.696 L54.08,145.424 L52.448,145.424 L52.448,142.224 L51.136,142.224 L51.136,150 L52.448,150 Z M60.384,150 L60.384,146.544 L64.112,146.544 L64.112,150 L65.44,150 L65.44,142.224 L64.112,142.224 L64.112,145.376 L60.384,145.376 L60.384,142.224 L59.056,142.224 L59.056,150 L60.384,150 Z M71.072,150.192 C72.976,150.192 74.688,148.704 74.688,146.128 C74.688,143.52 72.976,142.032 71.072,142.032 C69.168,142.032 67.472,143.52 67.472,146.128 C67.472,148.704 69.168,150.192 71.072,150.192 Z M71.072,149.088 C69.744,149.088 68.848,147.904 68.848,146.128 C68.848,144.336 69.744,143.136 71.072,143.136 C72.416,143.136 73.312,144.336 73.312,146.128 C73.312,147.904 72.416,149.088 71.072,149.088 Z" id="2окно" fill="#333333" fill-rule="nonzero"></path>
        <path d="M33.776,180.192 C35.648,180.192 37.152,179.088 37.152,177.28 C37.152,175.872 36.176,174.976 34.944,174.688 L34.944,174.624 C36.048,174.208 36.784,173.424 36.784,172.192 C36.784,170.544 35.504,169.6 33.728,169.6 C32.528,169.6 31.584,170.144 30.8,170.88 L31.504,171.712 C32.112,171.12 32.832,170.688 33.68,170.688 C34.768,170.688 35.44,171.312 35.44,172.288 C35.44,173.36 34.704,174.192 32.544,174.192 L32.544,175.2 C34.976,175.2 35.808,176.016 35.808,177.232 C35.808,178.368 34.928,179.088 33.696,179.088 C32.496,179.088 31.696,178.528 31.088,177.888 L30.416,178.752 C31.104,179.504 32.144,180.192 33.776,180.192 Z M45.488,180.192 C47.392,180.192 49.104,178.704 49.104,176.128 C49.104,173.52 47.392,172.032 45.488,172.032 C43.584,172.032 41.888,173.52 41.888,176.128 C41.888,178.704 43.584,180.192 45.488,180.192 Z M45.488,179.088 C44.16,179.088 43.264,177.904 43.264,176.128 C43.264,174.336 44.16,173.136 45.488,173.136 C46.832,173.136 47.728,174.336 47.728,176.128 C47.728,177.904 46.832,179.088 45.488,179.088 Z M52.448,180 L52.448,176.496 L54.128,176.496 L56.16,180 L57.6,180 L55.104,175.904 L55.76,174.384 C56.16,173.488 56.48,173.36 56.88,173.36 C56.992,173.36 57.04,173.376 57.136,173.408 L57.376,172.16 C57.248,172.096 57.088,172.064 56.912,172.064 C56.064,172.064 55.472,172.32 54.848,173.696 L54.08,175.424 L52.448,175.424 L52.448,172.224 L51.136,172.224 L51.136,180 L52.448,180 Z M60.384,180 L60.384,176.544 L64.112,176.544 L64.112,180 L65.44,180 L65.44,172.224 L64.112,172.224 L64.112,175.376 L60.384,175.376 L60.384,172.224 L59.056,172.224 L59.056,180 L60.384,180 Z M71.072,180.192 C72.976,180.192 74.688,178.704 74.688,176.128 C74.688,173.52 72.976,172.032 71.072,172.032 C69.168,172.032 67.472,173.52 67.472,176.128 C67.472,178.704 69.168,180.192 71.072,180.192 Z M71.072,179.088 C69.744,179.088 68.848,177.904 68.848,176.128 C68.848,174.336 69.744,173.136 71.072,173.136 C72.416,173.136 73.312,174.336 73.312,176.128 C73.312,177.904 72.416,179.088 71.072,179.088 Z" id="3окно" fill="#333333" fill-rule="nonzero"></path>
        <path d="M32.464,210.192 C32.992,210.192 33.424,209.776 33.424,209.184 C33.424,208.576 32.992,208.16 32.464,208.16 C31.936,208.16 31.504,208.576 31.504,209.184 C31.504,209.776 31.936,210.192 32.464,210.192 Z M37.824,210.192 C38.352,210.192 38.784,209.776 38.784,209.184 C38.784,208.576 38.352,208.16 37.824,208.16 C37.296,208.16 36.864,208.576 36.864,209.184 C36.864,209.776 37.296,210.192 37.824,210.192 Z M43.184,210.192 C43.712,210.192 44.144,209.776 44.144,209.184 C44.144,208.576 43.712,208.16 43.184,208.16 C42.656,208.16 42.224,208.576 42.224,209.184 C42.224,209.776 42.656,210.192 43.184,210.192 Z" id="…" fill="#333333" fill-rule="nonzero"></path>
        <g id="arrea/area-gray" transform="translate(170.000000, 104.000000)">
            <rect id="Rectangle-Copy" fill="#ECEDF2" x="0" y="0" width="50" height="22" rx="3"></rect>
            <path d="M19.064,15.96 L20.104,14.152 C20.376,13.688 20.632,13.208 20.888,12.76 L20.952,12.76 C21.24,13.208 21.528,13.688 21.8,14.152 L22.936,15.96 L24.376,15.96 L21.848,12.04 L24.2,8.184 L22.808,8.184 L21.864,9.88 L21.16,11.176 L21.16,11.176 L21.096,11.176 C20.84,10.744 20.584,10.312 20.344,9.88 L19.304,8.184 L17.864,8.184 L20.216,11.896 L17.672,15.96 L19.064,15.96 Z M31.624,15.96 L31.624,14.856 L29.528,14.856 L29.528,5.752 L28.504,5.752 C27.944,6.088 27.272,6.344 26.328,6.504 L26.328,7.368 L28.2,7.368 L28.2,14.856 L25.864,14.856 L25.864,15.96 L31.624,15.96 Z" id="x1" fill="#333333" fill-rule="nonzero"></path>
        </g>
        <g id="arrea/area-gray-copy-18" transform="translate(170.000000, 40.000000)">
            <rect id="Rectangle-Copy" fill="#ECEDF2" x="0" y="0" width="50" height="22" rx="3"></rect>
            <path d="M28.048,15.96 L28.048,14.856 L25.952,14.856 L25.952,5.752 L24.928,5.752 C24.368,6.088 23.696,6.344 22.752,6.504 L22.752,7.368 L24.624,7.368 L24.624,14.856 L22.288,14.856 L22.288,15.96 L28.048,15.96 Z" id="1" fill="#333333" fill-rule="nonzero"></path>
        </g>
        <g id="arrea/area-gray-copy-6" transform="translate(224.000000, 134.000000)">
            <rect id="Rectangle-Copy" fill="#ECEDF2" x="0" y="0" width="50" height="22" rx="3"></rect>
            <path d="M19.064,15.96 L20.104,14.152 C20.376,13.688 20.632,13.208 20.888,12.76 L20.952,12.76 C21.24,13.208 21.528,13.688 21.8,14.152 L22.936,15.96 L24.376,15.96 L21.848,12.04 L24.2,8.184 L22.808,8.184 L21.864,9.88 L21.16,11.176 L21.16,11.176 L21.096,11.176 C20.84,10.744 20.584,10.312 20.344,9.88 L19.304,8.184 L17.864,8.184 L20.216,11.896 L17.672,15.96 L19.064,15.96 Z M31.624,15.96 L31.624,14.856 L29.528,14.856 L29.528,5.752 L28.504,5.752 C27.944,6.088 27.272,6.344 26.328,6.504 L26.328,7.368 L28.2,7.368 L28.2,14.856 L25.864,14.856 L25.864,15.96 L31.624,15.96 Z" id="x1" fill="#333333" fill-rule="nonzero"></path>
        </g>
        <g id="arrea/area-gray-copy-12" transform="translate(278.000000, 164.000000)">
            <rect id="Rectangle-Copy" fill="#ECEDF2" x="0" y="0" width="50" height="22" rx="3"></rect>
            <path d="M19.064,15.96 L20.104,14.152 C20.376,13.688 20.632,13.208 20.888,12.76 L20.952,12.76 C21.24,13.208 21.528,13.688 21.8,14.152 L22.936,15.96 L24.376,15.96 L21.848,12.04 L24.2,8.184 L22.808,8.184 L21.864,9.88 L21.16,11.176 L21.16,11.176 L21.096,11.176 C20.84,10.744 20.584,10.312 20.344,9.88 L19.304,8.184 L17.864,8.184 L20.216,11.896 L17.672,15.96 L19.064,15.96 Z M31.624,15.96 L31.624,14.856 L29.528,14.856 L29.528,5.752 L28.504,5.752 C27.944,6.088 27.272,6.344 26.328,6.504 L26.328,7.368 L28.2,7.368 L28.2,14.856 L25.864,14.856 L25.864,15.96 L31.624,15.96 Z" id="x1" fill="#333333" fill-rule="nonzero"></path>
        </g>
        <g id="arrea/area-gray-copy-5" transform="translate(440.000000, 104.000000)">
            <rect id="Rectangle" fill="#73B0DE" x="0" y="0" width="50" height="22" rx="3"></rect>
            <path d="M18.736,19.304 C20.288,19.304 21.104,18.136 21.648,16.6 L24.576,8.184 L23.28,8.184 L21.888,12.472 C21.68,13.16 21.456,13.96 21.248,14.664 L21.184,14.664 C20.928,13.944 20.672,13.144 20.416,12.472 L18.848,8.184 L17.472,8.184 L20.592,15.976 L20.416,16.552 C20.096,17.512 19.536,18.2 18.672,18.2 C18.48,18.2 18.288,18.168 18.096,18.104 L17.808,19.144 C18.064,19.24 18.368,19.304 18.736,19.304 Z M31.792,15.96 L31.792,14.856 L29.696,14.856 L29.696,5.752 L28.672,5.752 C28.112,6.088 27.44,6.344 26.496,6.504 L26.496,7.368 L28.368,7.368 L28.368,14.856 L26.032,14.856 L26.032,15.96 L31.792,15.96 Z" id="y1" fill="#FFFFFF" fill-rule="nonzero"></path>
        </g>
        <g id="arrea/area-gray-copy-7" transform="translate(494.000000, 134.000000)">
            <rect id="Rectangle" fill="#73B0DE" x="0" y="0" width="50" height="22" rx="3"></rect>
            <path d="M18.736,19.304 C20.288,19.304 21.104,18.136 21.648,16.6 L24.576,8.184 L23.28,8.184 L21.888,12.472 C21.68,13.16 21.456,13.96 21.248,14.664 L21.184,14.664 C20.928,13.944 20.672,13.144 20.416,12.472 L18.848,8.184 L17.472,8.184 L20.592,15.976 L20.416,16.552 C20.096,17.512 19.536,18.2 18.672,18.2 C18.48,18.2 18.288,18.168 18.096,18.104 L17.808,19.144 C18.064,19.24 18.368,19.304 18.736,19.304 Z M31.792,15.96 L31.792,14.856 L29.696,14.856 L29.696,5.752 L28.672,5.752 C28.112,6.088 27.44,6.344 26.496,6.504 L26.496,7.368 L28.368,7.368 L28.368,14.856 L26.032,14.856 L26.032,15.96 L31.792,15.96 Z" id="y1" fill="#FFFFFF" fill-rule="nonzero"></path>
        </g>
        <g id="arrea/area-gray-copy-13" transform="translate(548.000000, 164.000000)">
            <rect id="Rectangle" fill="#73B0DE" x="0" y="0" width="50" height="22" rx="3"></rect>
            <path d="M18.736,19.304 C20.288,19.304 21.104,18.136 21.648,16.6 L24.576,8.184 L23.28,8.184 L21.888,12.472 C21.68,13.16 21.456,13.96 21.248,14.664 L21.184,14.664 C20.928,13.944 20.672,13.144 20.416,12.472 L18.848,8.184 L17.472,8.184 L20.592,15.976 L20.416,16.552 C20.096,17.512 19.536,18.2 18.672,18.2 C18.48,18.2 18.288,18.168 18.096,18.104 L17.808,19.144 C18.064,19.24 18.368,19.304 18.736,19.304 Z M31.792,15.96 L31.792,14.856 L29.696,14.856 L29.696,5.752 L28.672,5.752 C28.112,6.088 27.44,6.344 26.496,6.504 L26.496,7.368 L28.368,7.368 L28.368,14.856 L26.032,14.856 L26.032,15.96 L31.792,15.96 Z" id="y1" fill="#FFFFFF" fill-rule="nonzero"></path>
        </g>
        <g id="arrea/area-gray-copy" transform="translate(224.000000, 104.000000)">
            <rect id="Rectangle-Copy" fill="#ECEDF2" x="0" y="0" width="50" height="22" rx="3"></rect>
            <path d="M19.064,15.96 L20.104,14.152 C20.376,13.688 20.632,13.208 20.888,12.76 L20.952,12.76 C21.24,13.208 21.528,13.688 21.8,14.152 L22.936,15.96 L24.376,15.96 L21.848,12.04 L24.2,8.184 L22.808,8.184 L21.864,9.88 L21.16,11.176 L21.16,11.176 L21.096,11.176 C20.84,10.744 20.584,10.312 20.344,9.88 L19.304,8.184 L17.864,8.184 L20.216,11.896 L17.672,15.96 L19.064,15.96 Z M31.832,15.96 L31.832,14.824 L28.776,14.824 C28.248,14.824 27.624,14.856 27.064,14.904 C29.544,12.376 31.336,10.536 31.336,8.552 C31.336,6.76 30.152,5.56 28.264,5.56 C26.952,5.56 26.04,6.184 25.192,7.144 L25.944,7.864 C26.52,7.192 27.256,6.648 28.104,6.648 C29.4,6.648 30.04,7.464 30.04,8.632 C30.04,10.28 28.28,12.168 25.24,15.144 L25.24,15.96 L31.832,15.96 Z" id="x2" fill="#333333" fill-rule="nonzero"></path>
        </g>
        <g id="arrea/area-gray-copy-19" transform="translate(224.000000, 40.000000)">
            <rect id="Rectangle-Copy" fill="#ECEDF2" x="0" y="0" width="50" height="22" rx="3"></rect>
            <path d="M28.256,15.96 L28.256,14.824 L25.2,14.824 C24.672,14.824 24.048,14.856 23.488,14.904 C25.968,12.376 27.76,10.536 27.76,8.552 C27.76,6.76 26.576,5.56 24.688,5.56 C23.376,5.56 22.464,6.184 21.616,7.144 L22.368,7.864 C22.944,7.192 23.68,6.648 24.528,6.648 C25.824,6.648 26.464,7.464 26.464,8.632 C26.464,10.28 24.704,12.168 21.664,15.144 L21.664,15.96 L28.256,15.96 Z" id="2" fill="#333333" fill-rule="nonzero"></path>
        </g>
        <g id="arrea/area-gray-copy-8" transform="translate(278.000000, 134.000000)">
            <rect id="Rectangle-Copy" fill="#ECEDF2" x="0" y="0" width="50" height="22" rx="3"></rect>
            <path d="M19.064,15.96 L20.104,14.152 C20.376,13.688 20.632,13.208 20.888,12.76 L20.952,12.76 C21.24,13.208 21.528,13.688 21.8,14.152 L22.936,15.96 L24.376,15.96 L21.848,12.04 L24.2,8.184 L22.808,8.184 L21.864,9.88 L21.16,11.176 L21.16,11.176 L21.096,11.176 C20.84,10.744 20.584,10.312 20.344,9.88 L19.304,8.184 L17.864,8.184 L20.216,11.896 L17.672,15.96 L19.064,15.96 Z M31.832,15.96 L31.832,14.824 L28.776,14.824 C28.248,14.824 27.624,14.856 27.064,14.904 C29.544,12.376 31.336,10.536 31.336,8.552 C31.336,6.76 30.152,5.56 28.264,5.56 C26.952,5.56 26.04,6.184 25.192,7.144 L25.944,7.864 C26.52,7.192 27.256,6.648 28.104,6.648 C29.4,6.648 30.04,7.464 30.04,8.632 C30.04,10.28 28.28,12.168 25.24,15.144 L25.24,15.96 L31.832,15.96 Z" id="x2" fill="#333333" fill-rule="nonzero"></path>
        </g>
        <g id="arrea/area-gray-copy-14" transform="translate(332.000000, 164.000000)">
            <rect id="Rectangle-Copy" fill="#ECEDF2" x="0" y="0" width="50" height="22" rx="3"></rect>
            <path d="M19.064,15.96 L20.104,14.152 C20.376,13.688 20.632,13.208 20.888,12.76 L20.952,12.76 C21.24,13.208 21.528,13.688 21.8,14.152 L22.936,15.96 L24.376,15.96 L21.848,12.04 L24.2,8.184 L22.808,8.184 L21.864,9.88 L21.16,11.176 L21.16,11.176 L21.096,11.176 C20.84,10.744 20.584,10.312 20.344,9.88 L19.304,8.184 L17.864,8.184 L20.216,11.896 L17.672,15.96 L19.064,15.96 Z M31.832,15.96 L31.832,14.824 L28.776,14.824 C28.248,14.824 27.624,14.856 27.064,14.904 C29.544,12.376 31.336,10.536 31.336,8.552 C31.336,6.76 30.152,5.56 28.264,5.56 C26.952,5.56 26.04,6.184 25.192,7.144 L25.944,7.864 C26.52,7.192 27.256,6.648 28.104,6.648 C29.4,6.648 30.04,7.464 30.04,8.632 C30.04,10.28 28.28,12.168 25.24,15.144 L25.24,15.96 L31.832,15.96 Z" id="x2" fill="#333333" fill-rule="nonzero"></path>
        </g>
        <g id="arrea/area-gray-copy-2" transform="translate(278.000000, 104.000000)">
            <rect id="Rectangle-Copy" fill="#ECEDF2" x="0" y="0" width="50" height="22" rx="3"></rect>
            <path d="M19.064,15.96 L20.104,14.152 C20.376,13.688 20.632,13.208 20.888,12.76 L20.952,12.76 C21.24,13.208 21.528,13.688 21.8,14.152 L22.936,15.96 L24.376,15.96 L21.848,12.04 L24.2,8.184 L22.808,8.184 L21.864,9.88 L21.16,11.176 L21.16,11.176 L21.096,11.176 C20.84,10.744 20.584,10.312 20.344,9.88 L19.304,8.184 L17.864,8.184 L20.216,11.896 L17.672,15.96 L19.064,15.96 Z M28.376,16.152 C30.248,16.152 31.752,15.048 31.752,13.24 C31.752,11.832 30.776,10.936 29.544,10.648 L29.544,10.584 C30.648,10.168 31.384,9.384 31.384,8.152 C31.384,6.504 30.104,5.56 28.328,5.56 C27.128,5.56 26.184,6.104 25.4,6.84 L26.104,7.672 C26.712,7.08 27.432,6.648 28.28,6.648 C29.368,6.648 30.04,7.272 30.04,8.248 C30.04,9.32 29.304,10.152 27.144,10.152 L27.144,11.16 C29.576,11.16 30.408,11.976 30.408,13.192 C30.408,14.328 29.528,15.048 28.296,15.048 C27.096,15.048 26.296,14.488 25.688,13.848 L25.016,14.712 C25.704,15.464 26.744,16.152 28.376,16.152 Z" id="x3" fill="#333333" fill-rule="nonzero"></path>
        </g>
        <g id="arrea/area-gray-copy-20" transform="translate(278.000000, 40.000000)">
            <rect id="Rectangle-Copy" fill="#ECEDF2" x="0" y="0" width="51" height="22" rx="3"></rect>
            <path d="M25.3,16.152 C27.172,16.152 28.676,15.048 28.676,13.24 C28.676,11.832 27.7,10.936 26.468,10.648 L26.468,10.584 C27.572,10.168 28.308,9.384 28.308,8.152 C28.308,6.504 27.028,5.56 25.252,5.56 C24.052,5.56 23.108,6.104 22.324,6.84 L23.028,7.672 C23.636,7.08 24.356,6.648 25.204,6.648 C26.292,6.648 26.964,7.272 26.964,8.248 C26.964,9.32 26.228,10.152 24.068,10.152 L24.068,11.16 C26.5,11.16 27.332,11.976 27.332,13.192 C27.332,14.328 26.452,15.048 25.22,15.048 C24.02,15.048 23.22,14.488 22.612,13.848 L21.94,14.712 C22.628,15.464 23.668,16.152 25.3,16.152 Z" id="3" fill="#333333" fill-rule="nonzero"></path>
        </g>
        <g id="arrea/area-gray-copy-9" transform="translate(332.000000, 134.000000)">
            <rect id="Rectangle-Copy" fill="#ECEDF2" x="0" y="0" width="50" height="22" rx="3"></rect>
            <path d="M19.064,15.96 L20.104,14.152 C20.376,13.688 20.632,13.208 20.888,12.76 L20.952,12.76 C21.24,13.208 21.528,13.688 21.8,14.152 L22.936,15.96 L24.376,15.96 L21.848,12.04 L24.2,8.184 L22.808,8.184 L21.864,9.88 L21.16,11.176 L21.16,11.176 L21.096,11.176 C20.84,10.744 20.584,10.312 20.344,9.88 L19.304,8.184 L17.864,8.184 L20.216,11.896 L17.672,15.96 L19.064,15.96 Z M28.376,16.152 C30.248,16.152 31.752,15.048 31.752,13.24 C31.752,11.832 30.776,10.936 29.544,10.648 L29.544,10.584 C30.648,10.168 31.384,9.384 31.384,8.152 C31.384,6.504 30.104,5.56 28.328,5.56 C27.128,5.56 26.184,6.104 25.4,6.84 L26.104,7.672 C26.712,7.08 27.432,6.648 28.28,6.648 C29.368,6.648 30.04,7.272 30.04,8.248 C30.04,9.32 29.304,10.152 27.144,10.152 L27.144,11.16 C29.576,11.16 30.408,11.976 30.408,13.192 C30.408,14.328 29.528,15.048 28.296,15.048 C27.096,15.048 26.296,14.488 25.688,13.848 L25.016,14.712 C25.704,15.464 26.744,16.152 28.376,16.152 Z" id="x3" fill="#333333" fill-rule="nonzero"></path>
        </g>
        <g id="arrea/area-gray-copy-15" transform="translate(386.000000, 164.000000)">
            <rect id="Rectangle-Copy" fill="#ECEDF2" x="0" y="0" width="50" height="22" rx="3"></rect>
            <path d="M19.064,15.96 L20.104,14.152 C20.376,13.688 20.632,13.208 20.888,12.76 L20.952,12.76 C21.24,13.208 21.528,13.688 21.8,14.152 L22.936,15.96 L24.376,15.96 L21.848,12.04 L24.2,8.184 L22.808,8.184 L21.864,9.88 L21.16,11.176 L21.16,11.176 L21.096,11.176 C20.84,10.744 20.584,10.312 20.344,9.88 L19.304,8.184 L17.864,8.184 L20.216,11.896 L17.672,15.96 L19.064,15.96 Z M28.376,16.152 C30.248,16.152 31.752,15.048 31.752,13.24 C31.752,11.832 30.776,10.936 29.544,10.648 L29.544,10.584 C30.648,10.168 31.384,9.384 31.384,8.152 C31.384,6.504 30.104,5.56 28.328,5.56 C27.128,5.56 26.184,6.104 25.4,6.84 L26.104,7.672 C26.712,7.08 27.432,6.648 28.28,6.648 C29.368,6.648 30.04,7.272 30.04,8.248 C30.04,9.32 29.304,10.152 27.144,10.152 L27.144,11.16 C29.576,11.16 30.408,11.976 30.408,13.192 C30.408,14.328 29.528,15.048 28.296,15.048 C27.096,15.048 26.296,14.488 25.688,13.848 L25.016,14.712 C25.704,15.464 26.744,16.152 28.376,16.152 Z" id="x3" fill="#333333" fill-rule="nonzero"></path>
        </g>
        <g id="arrea/area-gray-copy-3" transform="translate(332.000000, 104.000000)">
            <rect id="Rectangle-Copy" fill="#ECEDF2" x="0" y="0" width="50" height="22" rx="3"></rect>
            <path d="M19.064,15.96 L20.104,14.152 C20.376,13.688 20.632,13.208 20.888,12.76 L20.952,12.76 C21.24,13.208 21.528,13.688 21.8,14.152 L22.936,15.96 L24.376,15.96 L21.848,12.04 L24.2,8.184 L22.808,8.184 L21.864,9.88 L21.16,11.176 L21.16,11.176 L21.096,11.176 C20.84,10.744 20.584,10.312 20.344,9.88 L19.304,8.184 L17.864,8.184 L20.216,11.896 L17.672,15.96 L19.064,15.96 Z M30.712,15.96 L30.712,13.144 L32.104,13.144 L32.104,12.088 L30.712,12.088 L30.712,5.752 L29.24,5.752 L24.872,12.264 L24.872,13.144 L29.464,13.144 L29.464,15.96 L30.712,15.96 Z M29.464,12.088 L26.264,12.088 L28.648,8.616 C28.936,8.104 29.224,7.656 29.48,7.176 L29.544,7.176 C29.512,7.72 29.464,8.6 29.464,9.128 L29.464,12.088 Z" id="x4" fill="#333333" fill-rule="nonzero"></path>
        </g>
        <g id="arrea/area-gray-copy-21" transform="translate(333.000000, 40.000000)">
            <rect id="Rectangle-Copy" fill="#ECEDF2" x="0" y="0" width="50" height="22" rx="3"></rect>
            <path d="M27.136,15.96 L27.136,13.144 L28.528,13.144 L28.528,12.088 L27.136,12.088 L27.136,5.752 L25.664,5.752 L21.296,12.264 L21.296,13.144 L25.888,13.144 L25.888,15.96 L27.136,15.96 Z M25.888,12.088 L22.688,12.088 L25.072,8.616 C25.36,8.104 25.648,7.656 25.904,7.176 L25.968,7.176 C25.936,7.72 25.888,8.6 25.888,9.128 L25.888,12.088 Z" id="4" fill="#333333" fill-rule="nonzero"></path>
        </g>
        <g id="arrea/area-gray-copy-10" transform="translate(386.000000, 134.000000)">
            <rect id="Rectangle-Copy" fill="#ECEDF2" x="0" y="0" width="50" height="22" rx="3"></rect>
            <path d="M19.064,15.96 L20.104,14.152 C20.376,13.688 20.632,13.208 20.888,12.76 L20.952,12.76 C21.24,13.208 21.528,13.688 21.8,14.152 L22.936,15.96 L24.376,15.96 L21.848,12.04 L24.2,8.184 L22.808,8.184 L21.864,9.88 L21.16,11.176 L21.16,11.176 L21.096,11.176 C20.84,10.744 20.584,10.312 20.344,9.88 L19.304,8.184 L17.864,8.184 L20.216,11.896 L17.672,15.96 L19.064,15.96 Z M30.712,15.96 L30.712,13.144 L32.104,13.144 L32.104,12.088 L30.712,12.088 L30.712,5.752 L29.24,5.752 L24.872,12.264 L24.872,13.144 L29.464,13.144 L29.464,15.96 L30.712,15.96 Z M29.464,12.088 L26.264,12.088 L28.648,8.616 C28.936,8.104 29.224,7.656 29.48,7.176 L29.544,7.176 C29.512,7.72 29.464,8.6 29.464,9.128 L29.464,12.088 Z" id="x4" fill="#333333" fill-rule="nonzero"></path>
        </g>
        <g id="arrea/area-gray-copy-16" transform="translate(440.000000, 164.000000)">
            <rect id="Rectangle-Copy" fill="#ECEDF2" x="0" y="0" width="50" height="22" rx="3"></rect>
            <path d="M19.064,15.96 L20.104,14.152 C20.376,13.688 20.632,13.208 20.888,12.76 L20.952,12.76 C21.24,13.208 21.528,13.688 21.8,14.152 L22.936,15.96 L24.376,15.96 L21.848,12.04 L24.2,8.184 L22.808,8.184 L21.864,9.88 L21.16,11.176 L21.16,11.176 L21.096,11.176 C20.84,10.744 20.584,10.312 20.344,9.88 L19.304,8.184 L17.864,8.184 L20.216,11.896 L17.672,15.96 L19.064,15.96 Z M30.712,15.96 L30.712,13.144 L32.104,13.144 L32.104,12.088 L30.712,12.088 L30.712,5.752 L29.24,5.752 L24.872,12.264 L24.872,13.144 L29.464,13.144 L29.464,15.96 L30.712,15.96 Z M29.464,12.088 L26.264,12.088 L28.648,8.616 C28.936,8.104 29.224,7.656 29.48,7.176 L29.544,7.176 C29.512,7.72 29.464,8.6 29.464,9.128 L29.464,12.088 Z" id="x4" fill="#333333" fill-rule="nonzero"></path>
        </g>
        <g id="arrea/area-gray-copy-4" transform="translate(386.000000, 104.000000)">
            <rect id="Rectangle-Copy" fill="#ECEDF2" x="0" y="0" width="50" height="22" rx="3"></rect>
            <path d="M19.064,15.96 L20.104,14.152 C20.376,13.688 20.632,13.208 20.888,12.76 L20.952,12.76 C21.24,13.208 21.528,13.688 21.8,14.152 L22.936,15.96 L24.376,15.96 L21.848,12.04 L24.2,8.184 L22.808,8.184 L21.864,9.88 L21.16,11.176 L21.16,11.176 L21.096,11.176 C20.84,10.744 20.584,10.312 20.344,9.88 L19.304,8.184 L17.864,8.184 L20.216,11.896 L17.672,15.96 L19.064,15.96 Z M28.344,16.152 C30.12,16.152 31.784,14.904 31.784,12.696 C31.784,10.488 30.36,9.496 28.632,9.496 C28.008,9.496 27.544,9.656 27.064,9.912 L27.336,6.904 L31.288,6.904 L31.288,5.752 L26.168,5.752 L25.832,10.664 L26.536,11.112 C27.144,10.712 27.576,10.504 28.28,10.504 C29.592,10.504 30.44,11.32 30.44,12.728 C30.44,14.152 29.464,15.048 28.216,15.048 C27.016,15.048 26.248,14.488 25.64,13.88 L25,14.76 C25.704,15.464 26.712,16.152 28.344,16.152 Z" id="x5" fill="#333333" fill-rule="nonzero"></path>
        </g>
        <g id="arrea/area-gray-copy-22" transform="translate(387.000000, 40.000000)">
            <rect id="Rectangle-Copy" fill="#ECEDF2" x="0" y="0" width="50" height="22" rx="3"></rect>
            <path d="M24.768,16.152 C26.544,16.152 28.208,14.904 28.208,12.696 C28.208,10.488 26.784,9.496 25.056,9.496 C24.432,9.496 23.968,9.656 23.488,9.912 L23.76,6.904 L27.712,6.904 L27.712,5.752 L22.592,5.752 L22.256,10.664 L22.96,11.112 C23.568,10.712 24,10.504 24.704,10.504 C26.016,10.504 26.864,11.32 26.864,12.728 C26.864,14.152 25.888,15.048 24.64,15.048 C23.44,15.048 22.672,14.488 22.064,13.88 L21.424,14.76 C22.128,15.464 23.136,16.152 24.768,16.152 Z" id="5" fill="#333333" fill-rule="nonzero"></path>
        </g>
        <g id="arrea/area-gray-copy-23" transform="translate(441.000000, 40.000000)">
            <rect id="Rectangle-Copy" fill="#ECEDF2" x="0" y="0" width="50" height="22" rx="3"></rect>
            <path d="M25.312,16.152 C26.96,16.152 28.336,14.824 28.336,12.872 C28.336,10.776 27.2,9.72 25.424,9.72 C24.592,9.72 23.68,10.232 23.04,11.032 C23.088,7.784 24.304,6.664 25.728,6.664 C26.368,6.664 27.008,6.984 27.408,7.48 L28.144,6.648 C27.584,6.024 26.784,5.56 25.68,5.56 C23.648,5.56 21.792,7.144 21.792,11.24 C21.792,14.52 23.312,16.152 25.312,16.152 Z M25.312,15.112 C24.032,15.112 23.248,14.056 23.072,12.072 C23.712,11.112 24.544,10.712 25.2,10.712 C26.464,10.712 27.088,11.544 27.088,12.872 C27.088,14.216 26.32,15.112 25.312,15.112 Z" id="6" fill="#333333" fill-rule="nonzero"></path>
        </g>
        <g id="arrea/area-gray-copy-24" transform="translate(495.000000, 40.000000)">
            <rect id="Rectangle-Copy" fill="#ECEDF2" x="0" y="0" width="50" height="22" rx="3"></rect>
            <path d="M25.12,15.96 C25.296,11.976 25.856,9.672 28.304,6.568 L28.304,5.752 L21.728,5.752 L21.728,6.904 L26.816,6.904 C24.752,9.72 23.936,12.12 23.76,15.96 L25.12,15.96 Z" id="7" fill="#333333" fill-rule="nonzero"></path>
        </g>
        <g id="arrea/area-gray-copy-25" transform="translate(549.000000, 40.000000)">
            <rect id="Rectangle-Copy" fill="#ECEDF2" x="0" y="0" width="50" height="22" rx="3"></rect>
            <path d="M25.024,16.152 C27.008,16.152 28.32,14.952 28.32,13.432 C28.32,12.056 27.456,11.336 26.544,10.808 L26.544,10.744 C27.184,10.264 27.952,9.352 27.952,8.28 C27.952,6.696 26.848,5.56 25.072,5.56 C23.424,5.56 22.176,6.616 22.176,8.184 C22.176,9.256 22.848,10.008 23.6,10.536 L23.6,10.6 C22.64,11.112 21.68,12.024 21.68,13.352 C21.68,14.968 23.104,16.152 25.024,16.152 Z M25.744,10.392 C24.512,9.912 23.392,9.4 23.392,8.184 C23.392,7.192 24.096,6.552 25.04,6.552 C26.16,6.552 26.816,7.352 26.816,8.344 C26.816,9.096 26.432,9.784 25.744,10.392 Z M25.056,15.16 C23.808,15.16 22.88,14.344 22.88,13.224 C22.88,12.296 23.488,11.544 24.288,11.016 C25.76,11.608 27.056,12.072 27.056,13.384 C27.056,14.44 26.24,15.16 25.056,15.16 Z" id="8" fill="#333333" fill-rule="nonzero"></path>
        </g>
        <g id="arrea/area-gray-copy-26" transform="translate(603.000000, 40.000000)">
            <rect id="Rectangle-Copy" fill="#ECEDF2" x="0" y="0" width="51" height="22" rx="3"></rect>
            <path d="M24.804,16.152 C26.852,16.152 28.708,14.568 28.708,10.472 C28.708,7.192 27.188,5.56 25.172,5.56 C23.54,5.56 22.164,6.888 22.164,8.84 C22.164,10.936 23.3,11.992 25.06,11.992 C25.892,11.992 26.804,11.512 27.444,10.712 C27.38,13.944 26.196,15.048 24.756,15.048 C24.116,15.048 23.492,14.728 23.076,14.248 L22.34,15.08 C22.9,15.688 23.716,16.152 24.804,16.152 Z M25.284,11 C24.036,11 23.412,10.168 23.412,8.84 C23.412,7.496 24.18,6.616 25.172,6.616 C26.468,6.616 27.252,7.672 27.412,9.656 C26.772,10.6 25.956,11 25.284,11 Z" id="9" fill="#333333" fill-rule="nonzero"></path>
        </g>
        <g id="arrea/area-gray-copy-27" transform="translate(658.000000, 40.000000)">
            <rect id="Rectangle-Copy" fill="#ECEDF2" x="0" y="0" width="50" height="22" rx="3"></rect>
            <path d="M21,16.152 C21.528,16.152 21.96,15.736 21.96,15.144 C21.96,14.536 21.528,14.12 21,14.12 C20.472,14.12 20.04,14.536 20.04,15.144 C20.04,15.736 20.472,16.152 21,16.152 Z M25,16.152 C25.528,16.152 25.96,15.736 25.96,15.144 C25.96,14.536 25.528,14.12 25,14.12 C24.472,14.12 24.04,14.536 24.04,15.144 C24.04,15.736 24.472,16.152 25,16.152 Z M29,16.152 C29.528,16.152 29.96,15.736 29.96,15.144 C29.96,14.536 29.528,14.12 29,14.12 C28.472,14.12 28.04,14.536 28.04,15.144 C28.04,15.736 28.472,16.152 29,16.152 Z" id="..." fill="#333333" fill-rule="nonzero"></path>
        </g>
        <g id="arrea/area-gray-copy-28" transform="translate(712.000000, 40.000000)">
            <rect id="Rectangle-Copy" fill="#ECEDF2" x="0" y="0" width="50" height="22" rx="3"></rect>
            <path d="M23.264,15.96 L23.264,10.328 C24.032,9.544 24.592,9.144 25.376,9.144 C26.4,9.144 26.848,9.752 26.848,11.208 L26.848,15.96 L28.176,15.96 L28.176,11.032 C28.176,9.048 27.44,7.992 25.792,7.992 C24.72,7.992 23.92,8.568 23.184,9.304 L23.136,9.304 L23.024,8.184 L21.936,8.184 L21.936,15.96 L23.264,15.96 Z" id="n" fill="#333333" fill-rule="nonzero"></path>
        </g>
        <g id="arrea/area-gray-copy-11" transform="translate(440.000000, 134.000000)">
            <rect id="Rectangle-Copy" fill="#ECEDF2" x="0" y="0" width="50" height="22" rx="3"></rect>
            <path d="M19.064,15.96 L20.104,14.152 C20.376,13.688 20.632,13.208 20.888,12.76 L20.952,12.76 C21.24,13.208 21.528,13.688 21.8,14.152 L22.936,15.96 L24.376,15.96 L21.848,12.04 L24.2,8.184 L22.808,8.184 L21.864,9.88 L21.16,11.176 L21.16,11.176 L21.096,11.176 C20.84,10.744 20.584,10.312 20.344,9.88 L19.304,8.184 L17.864,8.184 L20.216,11.896 L17.672,15.96 L19.064,15.96 Z M28.344,16.152 C30.12,16.152 31.784,14.904 31.784,12.696 C31.784,10.488 30.36,9.496 28.632,9.496 C28.008,9.496 27.544,9.656 27.064,9.912 L27.336,6.904 L31.288,6.904 L31.288,5.752 L26.168,5.752 L25.832,10.664 L26.536,11.112 C27.144,10.712 27.576,10.504 28.28,10.504 C29.592,10.504 30.44,11.32 30.44,12.728 C30.44,14.152 29.464,15.048 28.216,15.048 C27.016,15.048 26.248,14.488 25.64,13.88 L25,14.76 C25.704,15.464 26.712,16.152 28.344,16.152 Z" id="x5" fill="#333333" fill-rule="nonzero"></path>
        </g>
        <g id="arrea/area-gray-copy-17" transform="translate(494.000000, 164.000000)">
            <rect id="Rectangle-Copy" fill="#ECEDF2" x="0" y="0" width="50" height="22" rx="3"></rect>
            <path d="M19.064,15.96 L20.104,14.152 C20.376,13.688 20.632,13.208 20.888,12.76 L20.952,12.76 C21.24,13.208 21.528,13.688 21.8,14.152 L22.936,15.96 L24.376,15.96 L21.848,12.04 L24.2,8.184 L22.808,8.184 L21.864,9.88 L21.16,11.176 L21.16,11.176 L21.096,11.176 C20.84,10.744 20.584,10.312 20.344,9.88 L19.304,8.184 L17.864,8.184 L20.216,11.896 L17.672,15.96 L19.064,15.96 Z M28.344,16.152 C30.12,16.152 31.784,14.904 31.784,12.696 C31.784,10.488 30.36,9.496 28.632,9.496 C28.008,9.496 27.544,9.656 27.064,9.912 L27.336,6.904 L31.288,6.904 L31.288,5.752 L26.168,5.752 L25.832,10.664 L26.536,11.112 C27.144,10.712 27.576,10.504 28.28,10.504 C29.592,10.504 30.44,11.32 30.44,12.728 C30.44,14.152 29.464,15.048 28.216,15.048 C27.016,15.048 26.248,14.488 25.64,13.88 L25,14.76 C25.704,15.464 26.712,16.152 28.344,16.152 Z" id="x5" fill="#333333" fill-rule="nonzero"></path>
        </g>
    </g>
</svg>